<?xml version="1.0" encoding="UTF-8"?>
<svg width="900" height="600" fill="#fff" version="1.1" viewBox="0 0 10368 6912" xmlns="http://www.w3.org/2000/svg">
<title>Flag of Saudi Arabia</title>
<path d="m0 0h10368v6912H0z" fill="#01532f"/>
<g transform="matrix(11.706 0 0 13.176 -13.998 -671.02)" fill="#f4faf8">
<path d="m555.12 439.14c-1.2219 4.3496-4.1437 6.3499-7.4795 4.5707-5.6611-3.0195-1.8174-7.0088-0.30005-11.273-2.4659 0-4.5613-2e-3 -6.6567 3e-4 -80.131 0.0821-160.26 0.1503-240.39 0.26761-8.5007 0.0125-16.121-1.8201-22.328-9.5625h275.46c0.12079-2.2139-0.10211-3.929 0.37195-5.423 0.66717-2.1028 1.3738-4.774 2.9686-5.8134 1.2233-0.79733 4.9622-0.0583 5.5885 1.0874 0.98034 1.7933 0.41711 4.5196 0.21258 6.8245-0.0747 0.8421-0.99182 1.6095-2.0312 3.1729 7.9789 0 15.361-2e-3 22.742 7.9e-4 4.8311 2e-3 9.6685-0.14233 14.492 0.0536 7.035 0.28571 12.111 5.0637 12.307 11.283 0.16186 5.1274-2.3303 8.1235-7.4324 7.6696-3.6871-0.32797-7.258-1.9615-11.389-3.3379-1.0693-0.76584-1.6298-1.2065-2.2725-1.9994-1.617-1.6827-3.1112-4.1055-4.6938-4.1647-9.5915-0.35919-19.203-0.17898-29.318-0.17898 0 1.8756 0 3.3048-8e-3 5.0839 0.0464 0.81302 0.10137 1.2762 0.15631 1.7393z"/>
<path d="m576.97 438.93c-2.3152 2.5994-4.6998 3.5489-7.4356-0.10967 0.0391-0.88169 0.25293-1.3483 0.66119-2.085 2.6933-2.4359 4.7332-1.1759 6.6801 0.86808 0.0157 0.6195 0.0549 0.97305 0.0942 1.3266z"/>
<path d="m570 437c-0.21387 0.46665-0.42774 0.93326-0.77814 1.6194-4.4862 0.29522-8.8357 0.37091-13.641 0.48071-0.51075-0.42902-0.56568-0.89215-0.1463-1.6607 5.1714-0.35009 9.8685-0.39474 14.566-0.43939z"/>
<path d="m577.43 438.98c-0.50415-0.40362-0.5434-0.75717-0.095-1.4432 4.2359-0.39652 7.9841-0.46054 11.732-0.52454 0.56061 0.44074 1.1212 0.88144 1.8342 1.547-4.2339 0.30679-8.6203 0.38879-13.472 0.42074z"/>
</g>
<g transform="matrix(11.862 0 0 10.881 -122.76 104.56)" fill="#eff8f5">
<path d="m230.13 202c0.0299-2.9232-3.2992-6.196 1.3179-8.0077 0.41393 0.67697 0.5618 1.0088 0.5618 1.0088 1.1021 2.9463 1.8128 6.1247 3.392 8.7882 2.8379 4.7864 8.202 4.9322 10.637-0.0325 2.6006-5.302 3.8476-11.252 5.934-16.826 2.8362-7.5773 5.7363-15.142 8.9933-22.543 0.87345-1.9848 3.1432-3.3551 4.7719-5.0075 0.59497 0.27583 1.1899 0.55165 1.7848 0.82748-0.27343 3.529-0.35165 7.0867-0.86486 10.581-0.82114 5.5902-2.164 11.109-2.8674 16.71-1.2475 9.9348 1.619 14.841 9.2458 16.614 8.7279 2.0289 17.583-2.6937 20.328-11.123 2.5035-7.6879 2.0153-15.546-0.21921-23.144-1.6923-5.7545-0.99841-10.946 1.6494-16.628 4.6407 5.2969 5.4545 11.533 6.1658 17.751 0.77484 6.7747 0.91818 13.654 2.1913 20.325 0.60608 3.1755 3.1933 5.9729 4.8831 8.9416 0.56064-0.25338 1.1212-0.50676 1.6819-0.76014-0.68802-8.3686-1.2463-16.751-2.1144-25.101-0.4938-4.7497-1.8999-9.4285-2.1125-14.174-0.12482-2.7868 1.2859-5.6424 2.0059-8.4671 0.48468-0.0699 0.96936-0.13974 1.454-0.20961 3.2463 7.1382 6.4926 14.276 9.739 21.415-0.37796 0.2237-0.75592 0.44739-1.1339 0.6711-1.198-0.96298-2.396-1.926-5.0093-4.0266 1.1901 11.748 2.2436 22.149 3.3427 33 2.3085-0.38226 4.126-0.49109 5.8248-0.9976 7.6312-2.2752 7.8661-3.1971 5.6143-10.843-2.3876-8.1066-3.7163-16.56-6.555-24.486-1.8012-5.0296-1.3262-9.0584 1.4245-14.266 3.3379 5.1324 6.3013 9.6889 9.2647 14.245-0.2938 0.29723-0.58756 0.59447-0.88135 0.8917-1.0668-0.39461-2.1336-0.78922-4.1401-1.5314 1.8545 5.7984 3.9668 10.714 4.918 15.845 0.98093 5.2908 1.553 10.864 1.0138 16.183-0.89102 8.7891-5.7257 14.758-15.344 15.946 0.73871 6.0466 1.4373 11.765 2.2334 18.281 7.6284-3.5471 14.777-6.8709 22.622-10.519-0.60678 5.5412-1.7484 10.837 5.7095 12.61-1.2525-12.274-2.5395-24.157-3.6576-36.056-1.0439-11.108-1.9178-22.233-2.849-33.351-0.79221-9.4585-0.78119-9.4594 2.6167-14.634 3.1631 7.8088 6.1165 15.1 9.0698 22.391-0.41156 0.22457-0.82309 0.44915-1.2346 0.67373-1.3049-1.1363-2.6097-2.2727-4.9143-4.2796 2.3308 22.344 4.5459 43.578 6.797 65.157 8.6479-1.6593 9.0332-11.293 15.333-16.003 0.32776 4.0545-3.689 8.6372 2.0218 10.991 3.6694 1.5125 7.2833 1.9424 9.5174 0.72026 0.3317-5.7842 0.59909-10.447 0.92627-16.152 5.8966 6.3563 4.5941 21.305-1.087 25.311-3.6171 2.5506-11.086 1.582-14.84-1.9911-0.94946-0.9038-1.7187-1.9969-2.3797-2.7774-2.6963 3.1016-5.5343 6.0204-7.9013 9.2809-0.80447 1.1082-0.63925 3.091-0.5474 4.6523 0.72422 12.311 1.5801 24.619-1.8507 36.8 0.46438 0.16476 0.50158 0.11584 0.50158 0.11584-0.7619-1.3853-2.0969-2.7313-2.1952-4.1622-0.7959-11.591-1.3598-23.198-1.985-34.627-10.492-2.8282-11.744-4.2618-12.264-14.131-5.2117 2.5736-10.277 4.9529-15.187 7.6175-0.83551 0.45338-1.3361 2.1044-1.4242 3.246-0.26843 3.4756-0.0506 6.9936-0.397 10.458-1.1024 11.023-6.0695 19.7-15.308 26.162-11.579 8.0994-22.728 16.952-36.949 19.989-4.655 0.9942-9.6228 1.7266-14.297 1.213-17.827-1.9589-26.575-15.836-22.806-35.392 0.15697-0.81451 0.40604-1.6113 1.0788-2.9359 1.1854-0.64041 1.9043-0.76114 2.667-0.56391-0.22713 0.81354-0.49803 1.3091-0.82333 2.2818 0.23626 3.6706 0.52694 6.8641 0.99958 10.362 4.4242 12.711 16.531 19.431 30.631 16.227 18.588-4.2239 34.448-13.694 47.895-27.16 1.0747-1.0763 2.1276-2.8035 2.1184-4.2212-0.035-5.3823-0.51105-10.762-0.82221-16.142-0.64584-0.23212-1.2917-0.46423-1.9376-0.69635-1.0499 1.7526-2.2347 3.4398-3.1237 5.2706-2.3573 4.855-3.512 10.831-7.0814 14.453-8.5451 8.6717-18.842 15.273-30.504 19.278-20.086 6.8988-32.747-3.3285-29.924-24.469 1.0316-0.37909 1.7347-0.58841 2.4378-0.79773 0.0494 0.56693 0.0987 1.1338 0.0651 2.1437-0.0829 0.44296 1e-3 0.76257 1e-3 0.76257 1.2549 9.9006 8.3623 14.592 14.956 14.192 5.5541-0.33727 11.666-0.54598 16.427-2.9749 9.4038-4.7975 18.06-11.066 26.99-16.782 2.9472-1.8865 3.1484-4.3849 1.2908-7.1711-7.9212-0.13574-17.483 4.1541-21.552-6.6574-2.2172-5.8922 3.7591-15.05 9.975-17.214 5.91-2.0578 10.654 1.5883 16.353 12.842 1.3966-0.35831 2.9-0.74403 4.7552-1.22-0.70468-6.5585-1.3404-12.825-2.0926-19.077-0.10578-0.879-0.5708-2.1692-1.2268-2.4583-7.8261-3.4486-10.722-10.463-13.227-18.511-1.3171 3.5404-1.9762 6.7855-3.6321 9.399-2.179 3.439-4.6245 7.1136-7.8633 9.4019-10.347 7.3108-22.593 2.0026-25.185-10.374-1.8855-9.0065 0.68588-17.492 2.7822-26.757 0.13684-1.2898 0.13684-1.8948 0.13684-3.1507-0.75278 0.98013-1.1125 1.4485-1.4722 1.9168-2.8106 7.9582-5.58 15.931-8.4472 23.869-1.6876 4.6721-3.1323 9.4938-5.3985 13.88-3.2525 6.2952-8.6809 6.5939-12.871 0.81546-1.8038-2.4877-2.7112-5.6254-4.0173-9.1372-0.17123-1.0422-0.35092-1.4151-0.53061-1.7879m59.558 30.13c-2.597 2.1798-1.767 3.7897 1.0673 4.3734 2.608 0.53717 5.3445 0.45015 9.4283 0.73655-3.4824-3.6996-5.2668-7.1119-10.496-5.11z"/>
<path d="m657.43 273.38c-1.2682-3.3657-2.1005-6.9849-3.8838-10.051-6.0579-10.416-12.452-20.636-19.592-30.614-0.61823 18.577 2.4053 37.019-4.145 54.789-0.5799-12.696-1.1379-25.393-1.748-38.087-0.35986-7.485-0.71753-14.972-1.2718-22.444-0.12714-1.7144-0.64258-3.7074-1.6896-4.9943-5.3373-6.5607-10.908-12.932-17.216-20.33 0.9494 9.8591 2.192 18.618 2.5454 27.412 0.51953 12.931 0.91992 25.91 0.38189 38.827-0.37261 8.9471-5.788 14.976-14.593 17.586-7.9674 2.3613-13.604 0.0252-17.514-7.3126-1.277-2.3959-2.5418-4.7984-4.2886-8.0976-1.2537 5.2099-2.2069 9.1715-3.1602 13.133-0.44465-0.0422-0.88935-0.0845-1.334-0.12671v-12.793c-0.4856-0.27347-0.97119-0.5469-1.4568-0.82037-2.7515 2.6801-5.9734 5.0316-8.1343 8.1244-2.6393 3.7777-4.4301 8.1566-6.5072 12.316-1.4097 2.8226-2.5327 5.7958-4.0496 8.5557-2.085 3.7933-4.1711 8.1189-9.2033 8.2152-5.2512 0.10052-8.3252-3.7051-10.704-7.8822-1.4659-2.5744-2.5951-5.3405-3.7692-7.7978-11.618 4.2129-23.185 8.4076-34.753 12.602-0.21164-0.47538-0.42328-0.95078-0.63495-1.4262 1.7934-1.0691 3.5781-2.153 5.3815-3.2048 8.4701-4.9399 17.035-9.7282 25.336-14.936 1.4992-0.94055 2.5836-3.5469 2.7184-5.4644 0.36823-5.2349 0.12671-10.513 0.12671-15.774 0.71076-0.032 1.4216-0.0641 2.1323-0.0961 0.24182 5.3649 0.48364 10.73 0.76916 17.063 5.346-3.5734 9.5346-7.2473 12.233-12.756-0.10608-0.35648-0.17237-0.29709-0.17237-0.29709 0.62335-2.4486 1.954-4.9562 1.7556-7.3363-1.326-15.91-2.8263-31.809-4.5692-47.68-1.5991-14.561-3.5452-29.085-5.4116-43.615-0.31378-2.4427-1.4695-4.8524-1.396-7.2515 0.10015-3.2689 1.0074-6.5131 1.5685-9.7678 0.56934-0.0135 1.1387-0.027 1.708-0.0406 3.2888 7.2236 6.5776 14.447 9.8664 21.671-0.37463 0.25978-0.74927 0.51956-1.1239 0.77936-1.3353-0.89366-2.6705-1.7873-4.8361-3.2367 1.3127 9.2793 2.6701 17.72 3.6722 26.203 1.9697 16.674 4.2955 33.334 5.398 50.071 0.71649 10.876-2.011 21.516-7.5796 31.126-1.4045 2.4239-2.9827 5.035-5.153 6.6662-4.2897 3.2244-3.4993 5.9953-0.34271 9.2884 3.7683 3.9312 8.4927 4.7853 11.91 1.5822 1.779-1.6673 3.188-3.843 4.3793-6.0016 3.0519-5.5304 5.6348-11.333 8.9016-16.727 2.1228-3.5046 4.7072-6.9864 7.8497-9.5353 2.5272-2.0497 3.4539-3.8218 3.189-6.9501-2.2344-26.387-4.2754-52.791-6.5367-79.176-0.46447-5.4196-2.0133-10.761-2.2743-16.177-0.13958-2.8954 1.402-5.8718 2.1849-8.8116l1.4667-0.0882c3.366 7.1789 6.7319 14.358 10.098 21.537-0.38629 0.25251-0.77252 0.50505-1.1588 0.75756-1.354-0.99266-2.708-1.9853-5.1996-3.8121 0.94251 10.138 1.9238 19.123 2.5856 28.132 1.4396 19.597 2.2147 39.261 4.322 58.782 0.77429 7.1726 5.017 14.251 11.659 17.774 6.858 3.6371 13.675 0.462 19.329-4.1953 1.2342-1.0167 2.002-3.4644 1.8587-5.1579-2.0077-23.73-4.1938-47.444-6.4148-71.155-0.11463-1.2238-0.72797-2.5288-1.4568-3.5472-6.1028-8.5273-11.879-17.34-18.623-25.335-3.2591-3.8633-5.2759-7.1913-3.6961-12.809 6.5234 4.4787 12.796 8.785 19.068 13.091-0.19727 0.387-0.39453 0.77399-0.5918 1.161-1.7173-0.17611-3.4347-0.35221-6.3945-0.65574 3.3729 4.7969 6.2767 8.9267 9.1805 13.056 0.39288-0.12495 0.78571-0.24989 1.1786-0.37484-0.41003-4.9782 0.058-10.248-1.4717-14.854-1.6004-4.8193 0.0482-8.2514 2.2756-13.532 3.7256 8.1426 6.9391 15.166 10.153 22.19-0.35986 0.22392-0.71972 0.44783-1.0796 0.67174-1.2145-0.99562-2.4291-1.9912-4.5242-3.7087 0.76117 8.6727-1.4222 16.888 5.0435 23.802 4.9915 5.3374 9.5174 11.11 15.333 16.58-0.16687-2.9545-0.26819-5.9144-0.51221-8.8624-0.96185-11.618-1.9598-23.233-2.9611-34.848-0.93286-10.821-0.9422-10.821 1.7326-15.215 3.3517 7.4264 6.4622 14.318 9.5726 21.21-0.37775 0.22895-0.75549 0.45789-1.1332 0.68683-1.2037-0.96438-2.4075-1.9288-4.7908-3.8382 0.73352 8.3691 1.2896 15.539 2.0087 22.693 0.74945 7.4553 1.9462 14.878 2.3786 22.348 0.23639 4.0837 1.7773 7.0666 4.15 10.256 6.2448 8.3954 12.364 16.925 17.884 25.805 4.1306 6.6442 5.5865 14.206 3.8627 22.543-0.11804 0.44049-0.0945 0.51108-0.0945 0.51108z"/>
<path d="m337 297.89c-1.1668 0.23096-2.3336 0.46189-4.2141 0.53898-1.404 0.057-2.0944 0.26788-2.7848 0.47876-1.43 0.29605-2.8601 0.5921-4.8686 0.66793-1.0907-0.98547-1.6031-1.7507-2.1154-2.516 10.084-3.8155 20.169-7.6309 30.178-11.859-0.0756-0.41239-0.1128-0.36347-0.13309-0.34534 0.69391 0.0438 1.5551 0.34564 2.101 0.055 15.543-8.2752 31.05-16.617 46.572-24.931 4.4572-2.3874 4.8291-5.3091 2.3293-9.7226-4.0818-7.2066-7.8906-14.631-10.991-22.296-1.088-2.6897 0.24887-6.3602 0.57358-10.918 4.7866 4.4988 8.5598 8.045 13.241 12.445h-6.0474c2.1116 3.9354 3.9427 7.3796 5.8025 10.808 6.2975 11.61 4.199 22.309-6.7014 29.653-9.6102 6.4747-19.769 12.135-29.938 18.308 1.2477 4.7624 5.2148 6.0608 9.5125 5.4602 4.2076-0.58804 8.8515-1.4393 12.258-3.73 9.6203-6.469 18.764-13.658 27.971-20.726 3.8348-2.9441 4.653-6.8553 2.9754-11.519-3.4298-9.535-6.2495-19.306-10.043-28.687-2.235-5.5276-3.3083-10.702-0.68134-17.354 6.2132 7.6078 9.8332 15.968 12.196 24.783 2.3725 8.852 3.9234 17.924 6.1445 27.1 1.0901-10.296 8.9723-14.646 16.485-19.147 6.404-3.8371 13.059-7.2555 19.862-11.002-4.1265-4.7449-3.2144-9.9349-0.75083-15.111 1.6488-3.4643 4.8062-5.4529 8.156-3.7256 5.0894 2.6242 9.9927 5.8901 14.297 9.6584 2.8959 2.5356-0.50678 11.623-4.2827 12.836-0.94983 0.30509-1.8941 0.65432-2.8674 0.85482-3.8852 0.80039-7.3477 2.0131-6.9424 8.4769-1.3055-2.5181-1.9114-3.6868-2.9948-5.7765-8.7913 4.316-17.466 8.5746-26.14 12.833 0.14199 0.70805 0.28399 1.4161 0.42602 2.1242 20.394-0.84041 40.788-1.6808 61.344-2.5279-1.0502 5.192-3.0723 9.1332-8.494 11.009-9.8854 3.4194-19.667 7.1595-29.389 11.023-5.7838 2.298-11.373 5.0858-17.325 7.778 3.4017 6.9224 9.1289 7.727 15.011 9.3611 0.6601 0.50522 0.88471 0.66787 1.1527 0.77069 0.067 0.15826 0.13401 0.3165 0.137 1.0313-0.0118 0.7518 0.0405 0.94693 0.0926 1.1421 0.2594 1.6928 0.5188 3.3857 0.55209 5.6632-0.37881 1.122-0.53152 1.6594-0.6842 2.1968-9.8715-0.33072-19.007-2.9012-27.031-8.8679-9.2401-6.8715-14.031-16.201-14.91-27.019-8.6978 18.784-24.932 29.136-43.508 36.129-9.5131 3.5811-13.933-0.58991-16.321-12.673-8.5349 2.3035-17.085 4.6112-26.392 6.7749-1.443 0.069-2.1301 0.28201-2.8172 0.49502m105.52-32.696h-12.337c1.0465 10.107 9.9047 20.726 18.705 22.736 0.4773-6.1544 1.7601-12.095 7.6517-15.359 5.2012-2.881 10.708-5.2096 15.249-7.3841-8.9785 0-18.626 0-29.269 6e-3m34.792-35.173c0.83106-0.41323 1.6621-0.82647 2.5947-1.2902-6.1073-5.2892-8.9219-5.8502-13.19-2.4503 1.4959 1.9027 2.9945 3.8087 4.5472 5.7836 1.9456-0.68142 3.6404-1.275 6.0482-2.0431z"/>
<path d="m357.62 177.13c0.42916 5.0566 0.58581 10.155 1.3529 15.16 1.0847 7.0768 4.2662 11.529 8.0803 11.245 5.866-0.43663 6.9417-5.6512 8.4274-9.9165 2.7294-7.8355 4.5984-15.991 7.6517-23.686 1.8085-4.5577 5.1976-8.4883 7.876-12.701 0.8345 0.24999 1.669 0.49997 2.5035 0.74996 0 2.7336 0.33612 5.5179-0.0665 8.1909-0.98944 6.5687-2.9001 13.044-3.385 19.634-0.87991 11.961 8.8662 18.232 19.881 13.191 5.7171-2.6167 9.606-7.0802 9.9256-13.342 0.33548-6.5736 0.26764-13.359-1.028-19.768-1.1873-5.8731-0.91284-11.104 1.7191-16.687 5.1052 5.6009 5.6176 12.599 6.3828 19.442 0.57346 5.1278 0.57968 10.32 1.175 15.444 1.3764 11.849 12.095 17.864 22.636 12.897 2.1602-1.0181 3.4115-1.9268 2.5154-4.8606-3.2894-10.769-6.5106-21.578-9.1077-32.526-0.68295-2.8788 0.97455-6.3128 2.8314-9.807 3.0284 4.5658 6.0569 9.1316 9.6537 14.554-1.7417-0.17299-2.3295-0.15376-2.869-0.30581-0.59195-0.16686-1.1394-0.49164-1.9641-0.86403 0.0567 0.98498-0.0361 1.6719 0.15174 2.2708 1.4412 4.5944 2.7903 9.2257 4.4511 13.741 2.3508 6.3921 2.1338 12.702 0.0694 19.076-3.9876 12.312-17.339 15.728-26.273 6.2325-3.5862-3.812-5.6648-9.0424-8.2542-13.337-0.80487 2.1839-1.3946 5.4556-3.0902 7.9862-2.4416 3.6439-5.131 7.6026-8.6937 9.9247-10.816 7.0493-23.172 1.0649-23.991-11.8-0.43524-6.8361 1.2024-13.811 1.9929-20.713 0.19498-1.7024 0.73587-3.3651 1.1178-5.046-0.50974-0.16635-1.0195-0.33269-1.5292-0.49902-2.253 5.9819-4.5537 11.946-6.7457 17.951-2.2747 6.2307-3.9777 12.718-6.7794 18.696-3.3916 7.2362-9.8144 7.4099-13.968 0.49583-5.7103-9.5046-5.968-19.855-3.2114-30.683 0.35589-0.2656 0.56247-0.33953 0.56247-0.33953z"/>
<path d="m536.05 258.99c-5.5657-11.953-14.736-21.125-23.98-31.809 1.4493 20.143 5.814 39.058 0.8584 57.898-0.4361 0.0103-0.87213 0.0205-1.3082 0.0307-0.5148-7.3555-0.8541-14.728-1.583-22.063-1.3003-13.085-2.7159-26.161-4.3881-39.202-0.28781-2.2443-1.6996-4.6378-3.247-6.3812-13.139-14.805-26.253-29.641-39.795-44.073-3.6139-3.8514-5.5959-7.396-4.0238-13.215 6.459 4.3768 12.662 8.5804 18.866 12.784-0.14328 0.33454-0.28656 0.66907-0.42987 1.0036h-5.0161c-0.29394 0.3644-0.58789 0.72878-0.88186 1.0932 10.355 10.772 20.709 21.544 31.064 32.316 0.3844-0.21229 0.7688-0.42457 1.1532-0.63685-1.0916-9.3087-3.0034-18.614-3.0393-27.927-0.0345-8.9418-6.0407-17.995 0.75397-27.904 3.4352 7.8621 6.5929 15.089 9.7506 22.316-0.39954 0.22146-0.7991 0.44291-1.1987 0.66436-1.3305-1.034-2.661-2.0679-5.0556-3.9289 1.3609 10.664 3.1814 20.116 3.6215 29.633 0.51504 11.138 5.2321 19.395 12.806 27.378 6.497 6.8476 10.925 15.658 16.205 24.338 0.30762 2.0612 0.67713 3.3858 1.0467 4.7104 0.21826 0.73706 0.43646 1.4741 0.26025 2.5998-1.0764 0.38455-1.7583 0.38052-2.4402 0.3765z"/>
<path d="m657.37 273.34c0.90295-1.3909 2.6415-2.8094 2.6437-4.2306 0.0173-11.125 0.23401-22.291-0.62177-33.367-1.7946-23.227-4.0442-46.423-6.4941-69.59-0.53412-5.051-2.5591-9.9146 2.3973-14.654 3.3829 6.9414 6.6888 13.725 9.9948 20.509-0.46722 0.28978-0.93438 0.57956-1.4016 0.86934-1.2006-0.95445-2.4011-1.9089-4.7481-3.7748 0.52868 5.9474 0.99273 10.761 1.3788 15.58 1.8587 23.2 3.9828 46.385 5.3347 69.615 0.32702 5.6208-1.3569 11.57-3.0962 17.058-4.2017 13.257-12.751 22.353-26.722 25.666-7.4755 1.7728-14.915 3.6978-22.371 5.554-0.17254-0.50302-0.34509-1.006-0.5177-1.509 4.0698-2.041 8.2081-3.9572 12.195-6.1486 8.8701-4.8752 17.768-9.7176 26.427-14.95 2.572-1.5542 4.3866-4.3618 6.1022-6.5898-0.44617 5e-3 -0.46973-0.0653-0.50098-0.0364z"/>
<path d="m244.01 255.73c-0.80032 0.52824-1.5034 0.73756-2.5784 0.72483 0.85426-4.5453 2.0804-8.8685 3.3066-13.192-0.35346-0.32183-0.70689-0.64365-1.0604-0.96547-1.684 1.6654-4.0315 3.0394-4.9169 5.0555-1.9732 4.4931-3.2159 9.307-4.7563 13.99-0.71889 0.1207-1.4378 0.24143-2.4978 0.50458 1.0568-4.4348 2.4547-9.012 3.9268-13.832h-3.8922c-0.0504-0.20443-0.16835-0.47641-0.11878-0.51144 8.9723-6.3438 17.957-12.671 27.364-19.297-1.962-1.5076-3.4482-2.0891-3.9179-3.1296-0.91704-2.0315-2.406-5.0112-1.5957-6.3473 1.3862-2.2856 4.3597-3.6085 6.6666-5.3356 1.019 1.8125 2.6438 3.5398 2.9134 5.4577 0.3949 2.8091-2.1499 6.0744 1.9049 8.2784 0.5632 0.30614-0.12155 2.9082-0.28015 5.188-1.9154-1.5061-3.1234-2.4559-4.443-3.4935-7.9691 7.4152-14.841 15.252-16.025 26.904z"/>
<path d="m229.38 187.13c0.75835-9.7929 3.3328-18.604 13.505-23.471-5.0737-3.8535-0.77039-7.5362-0.65206-11.193 9e-3 -0.28285 1.3714-0.79773 2.0628-0.73596 3.3627 0.30051 9.0338 6.6327 8.5586 9.8515-0.16705 1.1316-2.1415 3.0973-2.5067 2.9335-5.3938-2.4181-7.727 2.3899-11.124 4.5251-1.4782 0.9291-2.7305 2.2176-3.7416 4.382 1.8442-0.18781 3.7313-0.19296 5.5208-0.61353 1.879-0.44165 3.6646-1.2813 5.6275-1.5652-3.2797 4.667-8.1067 5.3776-13.88 5.1301-0.28558 3.2853-0.56898 6.5456-1.348 10.251-1.0044 0.46533-1.5133 0.48555-2.0222 0.50576z"/>
<path d="m330.95 252.01c1.0718-1.8297 2.002-3.3376 2.9324-4.8456 0.34534 0.16557 0.69068 0.33113 1.036 0.4967-1.4219 3.4527-2.9791 6.8572-4.2301 10.371-1.4363 4.0338-3.2296 8.1042-3.6274 12.277-0.2084 2.1866 2.238 4.6263 3.4855 6.9518 1.5048-1.4193 3.0056-2.8428 4.5174-4.2546 0.3306-0.30871 0.70053-0.57528 1.6419-1.3405-0.2103 6.0039-2.25 10.474-6.3974 13.776-2.731 2.1741-6.492 1.0208-7.4085-2.8403-0.91877-3.8704-1.2863-8.4124-0.1352-12.112 1.9533-6.2786 5.2892-12.127 8.1855-18.478z"/>
<path d="m438.78 230.31c-0.0854-3.9969-0.29996-7.601-0.59317-12.526 4.3591 4.5806 1.145 12.325 9.0074 13.194-0.95431-4.426-1.8295-8.4848-2.7046-12.544 0.50784-0.13098 1.0157-0.26196 1.5235-0.39296 1.1017 2.7296 2.8394 5.3944 3.1259 8.207 0.28592 2.808-0.2153 6.212-1.7193 8.4482-0.65937 0.98041-4.6656-0.29007-7.7575-0.59898-1.0479 1.7046-3.1535 5.0791-6.6556 2.7828-3.7484-2.4578-3.1518-6.819-2.5086-10.697 4.4988 7.9522 4.4988 7.9522 8.2818 4.1264z"/>
<path d="m563.39 304.92c1.0665-1.2633 1.9415-2.2482 2.8173-3.2338-5.9351-5.4792-3.1463-12.727 7.2554-16.925v8.0211c-3.8876-5.4067-5.8275-1.536-8.0428 0.63446 4.1188 5.3471 5.5491 5.3428 14.932 0.0889-0.41724 4.9478-3.3686 7.3426-17.711 14.24 0.22425-1.025 0.39075-1.786 0.74884-2.8256z"/>
<path d="m614.47 276.65c1.5271 0.0195 3.8322 0.16522 3.8525 0.46524 0.13855 2.0518-0.20264 4.1359-0.50971 7.5508-3.9672-6.1854-5.7848-2.8187-7.9426-0.68127 3.9778 5.0606 4.5289 5.0692 16.081-0.014-4.1883 8.5075-12.73 9.6388-18.174 14.673-0.33032-0.26901-0.66064-0.53803-0.99096-0.80701 1.2113-1.928 2.4226-3.8559 3.6557-5.8186-5.1325-4.6698-5.1919-5.5378-0.19837-11.374 1.1812-1.3806 2.6243-2.5369 4.2263-3.9941z"/>
<path d="m322.63 297.05c0.90005 0.77542 1.4124 1.5407 2.139 2.5053-3.3686 0.88556-6.9363 1.6692-10.539 2.2287-3.1821 0.49423-6.0471 1.0455-7.669 4.4884-0.48682 1.0334-3.0758 2.0727-4.053 1.641-1.4005-0.61877-2.89-2.4711-3.1442-3.9963-0.99912-5.9947 0.90777-11.371 4.399-16.27 1.3456-1.8883 2.4677-3.9361 3.3738-6.0898-5.2177 5.4157-5.7116 17.564-0.90864 20.473 0.45435-0.59411 0.9676-1.1861 1.387-1.8384 0.34335-0.53402 0.5748-1.14 0.89477-1.7937 1.7416 2.8508 1.7416 2.8508 14.12-1.348z"/>
<path d="m241.12 222.17c3.2114 0.30572 5.9863 0.61163 8.7875 0.92044-1.5095 8.0319-7.8465 13.349-14.937 12.511 2.5704-1.4907 4.8868-2.834 7.2031-4.1773-0.0503-0.29941-0.10054-0.5988-0.1508-0.89821h-10.859c1.2962-5.7157 3.8042-8.906 9.9562-8.3563z"/>
<path d="m485.44 158.49c-4.5151 5.437-5.3989 5.8392-11.387 5.1357 2.6135-1.5281 4.9681-2.9048 7.3228-4.2816-0.0531-0.30521-0.10611-0.61043-0.15918-0.91563h-10.65c2.3005-8.8099 6.2103-10.194 19.325-6.7735-1.5122 2.346-2.8697 4.4519-4.4522 6.835z"/>
<path d="m586.88 207.25c1.4439-1.3361 2.4985-2.7024 3.7055-4.2664 0.18256 0.46045 0.46973 0.83327 0.45099 1.19-0.31311 5.9445-3.7504 11.156-6.9736 10.634-3.514-0.56928-5.8457-5.9287-4.2654-11.952 1.6654-6.3474 4.227-12.46 6.0818-17.772 0.50336-0.41756-0.41016-0.0432-0.50562 0.48033-0.73803 4.0472-1.3218 8.1226-1.9454 12.191-0.56171 3.6645-1.3002 7.3911 3.4517 9.4947z"/>
<path d="m283.49 177.28c-0.54241 1.7763-0.9552 3.1367-1.368 4.4971-0.31951-0.0171-0.63903-0.0341-0.95855-0.0512 0-1.1405-0.12049-2.2961 0.0197-3.4192 0.84442-6.7639-1.2483-12.654-6.0684-17.221-2.9771-2.8204-2.6473-5.2601-0.99463-8.2725 8.0182 4.6056 11.01 12.23 9.3698 24.466z"/>
<path d="m466.19 202.01c-4.3281-4.4392-4.5386-8.1199-0.35461-11.554 1.1196-0.91899 3.6637-1.8251 4.2535-1.2938 1.092 0.98368 1.6026 3.022 1.6475 4.6408 0.0428 1.5442-0.8162 3.1135-1.307 4.767 5.2857 4.7382 5.2857 4.7382 3.5845 8.3045-2.0393-1.1711-4.0812-2.3437-6.5773-3.703-0.71832-0.51148-0.98248-0.83623-1.2466-1.161z"/>
<path d="m405.3 164.99c-1.5834-1.9667-2.6642-4.0307-4.3611-5.2026-3.3433-2.3091-3.2317-4.915-1.6884-8.07 9.9589 5.8746 13.519 17.773 9.7184 29.773-1.0009-4.7051-2.2229-10.45-3.6689-16.5z"/>
<path d="m643.64 199.42c3.971 6.2006 4.944 12.598 4.1865 19.301-0.47149 0.0979-0.94305 0.19584-1.4146 0.29375-0.18835-1.4317-0.0159-3.0454-0.63-4.2622-2.1979-4.3556-3.9804-9.2221-7.2297-12.656-2.8886-3.0524-3.4662-5.5336-0.50824-10.686 1.791 2.5729 3.582 5.1457 5.5961 8.0098z"/>
<path d="m639.84 157.14c-2.8231 0.0978-5.2432 0.20746-7.7225 0.31978 1.8871-6.3537 6.8305-8.0276 14.593-5.1204-2.7019 8.2298-5.7373 10.947-12.877 11.445 2.4356-2.119 4.8109-4.1855 7.1862-6.2521-0.097-0.0914-0.17981-0.21394-0.29462-0.26647-0.14746-0.0674-0.32067-0.0786-0.8858-0.1258z"/>
<path d="m519.42 160.55c-2.467 1.0886-4.6654 1.9325-6.8638 2.7764-0.13141-0.32522-0.26276-0.65045-0.3941-0.97568 1.9112-1.2078 3.8225-2.4156 6.9927-4.419-3.8157-0.34711-6.3998-0.58219-8.9814-0.81493 1.7352-6.5883 5.3472-7.822 15.403-4.6368-2.0791 2.7633-3.9836 5.2943-6.1566 8.07z"/>
<path d="m264.97 254.88c0.25287 3.0809 0.50577 6.1618 0.75863 9.2426-0.55435 0.085-1.1087 0.17004-1.663 0.25506-0.52637-1.3285-1.1045-2.6391-1.5695-3.9888-1.4627-4.2456-2.1952-8.3495-8.1052-9.7155-4.9228-1.1379-1.1255-4.7892-0.23484-7.6675 6.5648 1.6568 7.9489 7.2036 10.491 11.933 0.33734-0.1203 0.32306-0.0584 0.32306-0.0584z"/>
<path d="m593.61 256.32c-0.37579 1.1019-0.62988 1.8458-0.88397 2.5897-0.24414-3e-3 -0.48822-6e-3 -0.73236-9e-3 0-3.3 0.77637-6.8516-0.19153-9.8378-1.2824-3.9564-3.9348-7.4673-5.986-11.176-1.2731-2.3021-2.5232-4.617-3.2234-7.2317 8.9308 2.448 12.683 11.742 11.017 25.665z"/>
<path d="m522.23 210.48c1.7508-0.55182 3.1928-1.3847 4.7239-2.269-0.21155-0.32368 0.0729-0.0919 0.0576 0.11829-0.27697 3.823-0.25677 8.1097-5.2044 8.858-2.8549 0.43177-4.9481-4.155-4.0986-9.3867 0.71082-4.378 2.0698-8.6507 3.4218-14.099 0.30481 6.3564 0.54785 11.427 1.0997 16.778z"/>
<path d="m560.61 246.9c1.0514 2.9605-0.44403 7.8678-2.9144 8.5134-1.3032 0.34052-3.9089-0.55023-4.3872-1.5918-0.98107-2.1368-1.6801-4.9326-1.1477-7.1307 1.3385-5.5258 3.426-10.87 5.2133-16.287 0.45672 0.14662 0.91351 0.29323 1.3702 0.43985-1.0096 3.2596-2.1874 6.4797-2.9669 9.7935-0.48016 2.0413-0.65582 4.2679-0.36902 6.3278 0.14301 1.0273 1.632 1.8672 2.5122 2.7918 0.8067-0.87932 1.6134-1.7586 2.6894-2.8565z"/>
<path d="m371.61 268.42c-4.7206-3.0227-4.0106-7.2429-3.1329-11.297 0.56098-2.5911 1.7717-5.0416 2.6911-7.5551 0.42121 0.11835 0.84241 0.23669 1.2636 0.35504-0.3995 2.1728-1.2921 4.4021-1.0516 6.5016 0.215 1.8771 1.68 3.611 2.5935 5.4081 1.2627-0.96432 2.5255-1.9286 3.5924-2.7434 0.64356 4.4462-1.8221 8.8936-5.9561 9.3305z"/>
<path d="m554.13 156.04c-2.1984 4.0724-4.8164 6.7853-10.037 5.7244 2.1481-1.3735 4.0338-2.5792 7.027-4.4931-4.0062-0.18681-6.6891-0.31192-9.3988-0.43826 2.0377-6.5661 5.0772-7.6445 14.577-4.9324-0.69744 1.3354-1.3433 2.5721-2.1677 4.1394z"/>
<path d="m467.87 303.38c0.26184-0.86374 0.41455-1.4012 0.74749-2.1538 0.48185 0.3342 0.78345 0.88364 1.0851 1.4331 6.8199-4.4856 14.753-7.6605 18.843-15.589 0.37497 0.44351 0.4325 0.74252 0.49 1.0415-2.2982 3.331-4.0472 7.2973-7.0107 9.8585-5.8786 5.0806-12.718 8.7624-20.826 9.5421 2.1874-1.2686 4.3748-2.5371 6.6714-4.1321z"/>
<path d="m372.27 162.04c-6.8279-4.1697 0.17914-7.834 0.16815-11.755 0.44577-0.27367 0.89154-0.54735 1.3373-0.82102 2.0659 2.8832 4.3436 5.6471 6.0744 8.7192 0.55149 0.97888 0.10535 3.5174-0.7012 4.0131-1.0249 0.6299-2.881-0.0927-5.0576-0.22366-1.0596 0.028-1.4403 0.0475-1.821 0.067z"/>
<path d="m421.95 287.33c0.49567-0.53949 0.78189-0.91333 1.3229-1.6198-3.1203 2.2626-5.3773 9.5894-3.4252 11.741 0.82327 0.90726 3.2271 0.38025 5.5383 0.55161-0.4455-0.99832-0.29474-0.82916-0.32544-0.70492-1.1978 4.8422-4.821 8.6428-7.1476 7.2448-4.0778-2.4504-3.1005-6.4358-1.6269-9.7323 1.2111-2.7095 3.592-4.8961 5.6639-7.4802z"/>
<path d="m552.78 202.16c1.4962 0.25432 2.7033 0.25432 4.1296 0.25432 0.28107 3.2581-0.94269 6.3988-4.2609 6.3334-1.5474-0.0305-4.384-3.8941-4.2602-5.8715 0.31323-5.0041 1.9713-9.924 4.1025-14.698 0 4.576 0 9.1519 0.28912 13.982z"/>
<path d="m514 179.54c0.79852 1.6518 1.5612 2.8868 2.3238 4.1218 0.64789-0.86209 1.6634-1.6486 1.8596-2.6035 0.31384-1.5278 0.084-3.1674 0.084-5.8044 1.6052 3.0042 2.7332 5.1152 3.8611 7.2262 0.41778-0.20367 0.83557-0.40736 1.2534-0.61104-0.47565-2.3349-0.9513-4.6698-1.427-7.0047l1.3211-0.39849c0.7796 2.2267 2.1052 4.4431 2.1468 6.6835 0.0278 1.4955-1.7722 3.025-2.7542 4.5392-2.146-4.3526-9.7052 6.7898-9.7916-3.4192-0.0114-1.3514 0.0994-2.7038 0.15363-4.0557 0.16242 0.0344 0.39197 0.014 0.4737 0.11424 0.19097 0.2343 0.31097 0.52644 0.4956 1.212z"/>
<path d="m489.4 288.1c-0.42526-0.29129-0.48279-0.5903-0.65475-1.3316 0.33264-1.4638 0.56204-2.6851 1.2753-3.4626 1.2272-1.3378 2.6937-3.1914 4.1789-3.3077 1.0516-0.0824 2.7575 2.1694 3.3316 3.6952 0.57702 1.5336 0.7543 3.9548-0.0976 5.0521-0.66431 0.85571-3.1827 0.40244-4.861 0.28995-0.95169-0.0638-1.8708-0.61276-3.1724-0.93543z"/>
<path d="m493.86 242.92c0.1724-3.9968 0.45142-7.6224 0.73044-11.248 3.1074 8.3676 3.1074 8.3676 7.5588 8.8193-1.7477 2.1066-2.891 3.9714-4.531 5.138-0.44009 0.3131-2.3931-1.5007-3.7582-2.7093z"/>
<path d="m432.11 163.7c3e-3 -0.74648-0.20868-1.1372-0.42054-1.5279-0.30694 0.26093-0.61389 0.52185-0.92086 0.78276 0.63516 0.64093 1.4839 1.9213 1.8627 1.7948 0.89294-0.29834 2.0453-1.1648 2.2192-1.9864 0.34549-1.6321 0.10218-3.3888 0.10218-6.3782 1.4399 3.4751 2.3286 5.6198 3.2173 7.7645 0.39499-0.15226 0.78998-0.30449 1.185-0.45674l-0.96588-5.8006c0.44348-0.10646 0.88696-0.2129 1.3305-0.31936 0.4755 2.1598 1.3556 4.34 1.2477 6.4702-0.0504 0.99447-1.8821 2.1839-3.146 2.7509-1.2448 0.55841-2.7976 0.60752-4.2058 0.56488-1.0119-0.0307-2.0081-0.57956-3.0113-0.89728 0.43033-0.80193 0.86066-1.6038 1.506-2.7616z"/>
<path d="m271.11 239.45c4.2222 1.3578 5.2259 3.9042 3.1961 8.0087-3.5106-4.441-5.7174-2.833-6.8918 2.8859-0.51715-0.67559-1.0343-1.3512-1.5514-2.0268 1.6356-2.9312 3.2713-5.8624 5.2471-8.8678z"/>
<path d="m466 202.3c0.45163 0.0409 0.71579 0.36569 1.1081 0.97841-3.9214 6.1046-8.9267 10.796-13.445 13.186 3.2706-3.7364 7.7102-8.8083 12.337-14.164z"/>
<path d="m372 162.24c0.66007-0.22175 1.0407-0.24127 1.7073-0.24896-3.8792 3.4721-8.0567 6.9174-12.202 10.401-1.4839 1.2468-2.8908 2.5852-4.1042 4.3078 0.2287 0.42604 0.0221 0.49997 2e-3 0.46173 1.4102-2.3265 2.4705-4.9976 4.3541-6.8158 3.0357-2.9301 6.6142-5.2979 10.243-8.1054z"/>
<path d="m536.04 259.38c0.68537-0.39337 1.3672-0.38934 2.3902-0.38516 0.40503 2.3126 0.46912 4.625 0.66547 7.3192 0.13226 0.38177 0.19855 0.32238 0.22912 0.27825-1.0757-2.301-2.1819-4.558-3.2848-7.2123z"/>
<path d="m229.25 187.82c0.64316-0.71162 1.152-0.73184 2.0424-0.7693 0.43542 0.73009 0.48929 1.4774 0.3125 3.09-0.0652 1.5273 0.10017 2.1893 0.26558 2.8513-5.237 1.1617-1.8617-2.9716-2.6205-5.172z"/>
<path d="m538.27 255.66c-0.41687-0.97501-0.78638-2.2997-1.1081-4.0073 0.41705 0.9639 0.78625 2.3108 1.1081 4.0073z"/>
<path d="m231.95 192.81c-0.24346-0.47642-0.40888-1.1384-0.41132-2.2954 0.27176 0.37331 0.38055 1.2416 0.41132 2.2954z"/>
<path d="m264.99 254.79c0.21622 0.0967 0.42163 0.22327 0.62705 0.34984 3e-3 -0.26571 7e-3 -0.53143 0.0104-0.79713-0.2673 0.0538-0.53463 0.10753-0.7322 0.35017 0.0697 0.18889 0.084 0.127 0.0948 0.0971z"/>
<path d="m337.36 297.94c0.32987-0.27112 1.017-0.48413 2.0633-0.58487-0.32923 0.28919-1.0177 0.4661-2.0633 0.58487z"/>
<path d="m330.36 298.96c0.33331-0.26828 1.0237-0.47916 2.0729-0.57092-0.3327 0.28885-1.0243 0.45858-2.0729 0.57092z"/>
<path d="m467.9 292.75c-0.2893 0.16732-0.51391 5e-3 -0.80529-0.39655 0.20215-0.077 0.5144 0.0247 0.80529 0.39655z"/>
<path d="m468.21 295.05c-0.15583-0.059-0.20804-0.25409-0.23346-0.75085 0.13025 4e-3 0.23367 0.30923 0.23346 0.75085z"/>
<path d="m231.91 194.49c0.27289-0.0698 0.35753 0.13753 0.20091 0.47687-0.093 0.0321-0.24084-0.29969-0.20091-0.47687z"/>
<path d="m230.09 202.31c0.22141 0.0561 0.4011 0.42898 0.54441 1.1157-0.21964-0.0571-0.40288-0.42803-0.54441-1.1157z"/>
<path d="m244.07 258.89c-0.0908 0.0602-0.17486-0.25943-0.14991-0.42215 0.23362-0.0654 0.30554 0.10953 0.14991 0.42215z"/>
<path d="m233.23 263.94c0.33269 2.7336 0.61096 5.9442 0.85344 9.6063-0.32648-2.7422-0.61716-5.9356-0.85344-9.6063z"/>
<path d="m261.69 174.64c0.0652-0.7564 0.42487-1.2247 1.1776-2.2049 0 1.2559 0 1.8609-0.13538 2.755-0.33954 0.1054-0.54364-0.0784-1.0423-0.55018z"/>
</g>
</svg>